<?xml version="1.0" standalone="no"?>
<!DOCTYPE svg PUBLIC "-//W3C//DTD SVG 20010904//EN"
 "http://www.w3.org/TR/2001/REC-SVG-20010904/DTD/svg10.dtd">
<svg version="1.0" xmlns="http://www.w3.org/2000/svg"
 width="2410.000000pt" height="2455.000000pt" viewBox="0 0 2410.000000 2455.000000"
 preserveAspectRatio="xMidYMid meet">

<g transform="translate(0.000000,2455.000000) scale(0.100000,-0.100000)"
fill="#000000" stroke="none">
<path d="M6935 21494 c-16 -2 -84 -11 -150 -20 -66 -9 -124 -19 -130 -24 -5
-4 -39 -13 -75 -19 -93 -18 -287 -85 -415 -144 -352 -161 -674 -416 -904 -717
-128 -167 -271 -420 -327 -575 -9 -27 -21 -55 -25 -60 -10 -13 -66 -208 -89
-310 -73 -316 -63 -819 20 -1090 97 -314 121 -375 237 -600 54 -106 172 -302
238 -398 62 -90 185 -258 217 -297 16 -19 32 -40 36 -45 45 -64 228 -278 376
-440 248 -272 498 -528 1035 -1060 l181 -180 321 320 c598 597 924 942 1153
1220 323 394 488 638 640 950 85 174 99 208 126 290 12 39 26 75 30 80 7 8 40
132 81 295 4 19 16 96 25 170 18 149 15 479 -6 620 -13 85 -87 389 -99 405 -4
5 -18 42 -30 80 -54 167 -230 484 -356 640 -176 218 -399 420 -612 554 -79 50
-321 171 -393 196 -41 15 -89 33 -106 41 -17 7 -78 25 -135 39 -57 14 -118 29
-135 35 -82 27 -240 42 -464 45 -129 2 -248 1 -265 -1z m385 -1746 c24 -6 84
-31 133 -55 123 -60 225 -162 288 -288 57 -113 73 -175 73 -295 0 -119 -15
-178 -71 -292 -61 -125 -171 -235 -293 -295 -109 -53 -172 -67 -295 -66 -179
0 -311 54 -444 179 -142 134 -205 279 -204 474 0 194 54 323 194 462 66 65
104 94 156 118 37 17 75 35 83 39 15 8 85 24 150 35 37 6 179 -4 230 -16z"/>
<path d="M14540 15084 c-257 -23 -501 -101 -685 -219 -28 -17 -131 -111 -231
-207 -200 -195 -175 -180 -379 -223 -251 -54 -498 -74 -670 -56 -288 30 -542
134 -750 306 -122 100 -195 146 -380 235 -210 100 -255 114 -354 108 -85 -5
-153 -34 -230 -96 -54 -44 -171 -190 -171 -213 0 -18 12 -22 355 -133 77 -24
274 -88 439 -141 1084 -349 1237 -387 1531 -387 223 0 344 27 528 118 87 44
87 44 122 27 19 -9 35 -19 35 -22 -1 -3 -64 -55 -141 -116 -77 -60 -145 -116
-152 -124 -10 -12 2 -13 88 -9 77 5 107 3 132 -9 46 -21 173 -147 218 -215 35
-54 37 -60 25 -89 -28 -66 -129 -150 -330 -275 -418 -259 -480 -292 -1490
-790 -1477 -727 -2127 -1044 -2140 -1044 -5 0 -18 28 -29 63 -10 34 -204 625
-430 1313 -226 688 -411 1256 -411 1263 0 14 5 14 217 -5 98 -9 252 -17 343
-17 l166 -2 102 50 c56 28 102 54 102 59 0 15 -99 182 -124 209 -67 72 -319
209 -491 266 -194 64 -275 75 -550 76 -277 0 -324 -6 -606 -76 -225 -55 -291
-89 -336 -170 -25 -47 -25 -211 1 -289 51 -153 160 -247 336 -291 75 -19 272
-16 399 5 85 14 107 15 117 4 6 -7 31 -76 53 -153 52 -175 53 -177 112 -305
123 -268 107 -376 -110 -713 -133 -206 -442 -790 -426 -805 3 -4 9 -2 13 4
165 244 467 674 473 674 25 0 10 -39 -82 -212 -147 -278 -96 -196 -906 -1438
-587 -902 -740 -1141 -785 -1229 -41 -82 -144 -379 -134 -388 3 -4 8 -4 10 -2
2 2 227 360 500 794 274 435 504 796 511 804 11 11 19 11 52 -5 38 -19 38 -19
41 -87 3 -76 33 -4 -343 -837 -81 -179 -187 -419 -237 -535 -50 -115 -102
-228 -116 -250 -37 -60 -112 -134 -162 -160 -55 -28 -152 -47 -197 -39 -24 5
-33 3 -33 -7 0 -8 68 -140 150 -293 105 -195 147 -282 139 -287 -24 -14 -233
-21 -313 -10 -184 26 -294 124 -324 289 -16 88 9 156 78 215 47 40 134 76 203
84 28 3 51 12 54 20 9 23 -29 243 -42 243 -7 0 -76 -69 -155 -152 -193 -206
-313 -331 -307 -321 16 26 206 467 203 470 -2 2 -46 -39 -97 -93 -164 -169
-322 -278 -535 -369 -170 -73 -231 -122 -287 -230 -28 -54 -31 -71 -35 -168
-5 -120 13 -198 67 -290 37 -64 113 -156 129 -157 16 0 17 -5 -24 101 -46 119
-84 268 -84 328 0 116 71 225 192 298 55 34 237 105 298 118 35 7 34 6 -45
-76 -128 -133 -163 -184 -246 -354 -94 -195 -100 -212 -67 -219 161 -37 283
-51 446 -50 94 1 172 -2 172 -5 0 -12 -83 -87 -120 -109 -78 -46 -144 -57
-324 -55 -112 1 -165 -2 -158 -9 23 -23 151 -60 228 -65 107 -8 206 8 426 67
101 27 228 55 283 61 55 6 166 22 246 35 171 28 259 30 470 9 333 -33 1457
-163 1468 -170 13 -7 -68 -600 -110 -810 -52 -259 -127 -483 -219 -650 -27
-49 -43 -96 -55 -160 -22 -119 -41 -165 -105 -260 -168 -250 -410 -483 -675
-650 -354 -223 -827 -353 -1200 -330 -200 12 -349 43 -580 120 -110 37 -212
55 -201 36 9 -14 117 -69 206 -105 79 -32 218 -71 331 -92 113 -22 456 -30
590 -15 446 51 864 223 1175 484 272 228 514 540 688 888 159 318 253 603 341
1034 37 185 64 275 110 379 l26 59 75 -74 c123 -121 119 -111 105 -248 -55
-513 -259 -1114 -538 -1581 -155 -259 -307 -453 -510 -651 -446 -433 -966
-649 -1566 -649 -347 0 -666 63 -1117 219 -96 34 -179 60 -184 58 -23 -8 191
-134 337 -198 296 -132 579 -189 935 -189 312 0 523 31 781 116 505 166 945
527 1320 1084 375 557 598 1179 686 1915 9 72 18 136 20 143 6 17 216 16 315
-2 94 -17 136 -35 184 -76 105 -92 109 -211 17 -516 -45 -152 -85 -323 -77
-331 3 -3 10 5 15 18 31 81 283 655 291 663 6 6 21 6 42 -1 33 -9 33 -9 31
-70 -2 -77 -49 -253 -109 -408 -25 -66 -70 -185 -100 -265 -30 -80 -58 -152
-63 -160 -10 -19 -40 -24 -72 -11 -23 8 -27 18 -38 95 -7 47 -16 86 -20 86
-12 0 -394 -431 -387 -437 3 -3 101 38 218 90 141 64 216 93 224 87 6 -6 19
-28 29 -50 16 -35 16 -43 4 -54 -19 -18 -547 -346 -556 -346 -5 0 -20 14 -34
32 l-27 32 66 98 c36 54 63 100 61 103 -10 9 -211 -79 -238 -104 -21 -19 -32
-44 -41 -86 -15 -74 -8 -231 11 -251 27 -26 244 -74 338 -74 94 0 78 -6 263
96 178 99 211 119 255 158 91 80 118 154 127 346 6 133 51 501 66 536 l8 21
158 -23 c87 -13 161 -21 163 -18 3 2 -31 56 -74 119 -43 63 -76 117 -74 119 2
3 94 -8 204 -25 117 -17 242 -29 300 -29 258 0 390 97 475 351 48 141 69 280
106 704 21 237 23 243 57 184 79 -135 129 -289 147 -449 20 -181 -16 -414
-107 -693 -24 -76 -42 -142 -38 -145 12 -12 106 120 152 213 67 134 93 254 93
431 0 198 -28 350 -117 639 -40 129 -46 163 -47 240 -1 81 2 97 31 157 18 38
117 197 221 355 104 159 260 398 347 533 522 809 822 1232 1252 1767 422 524
657 812 661 808 3 -3 -11 -22 -31 -44 -48 -53 -63 -85 -77 -160 -12 -68 -8
-126 20 -266 34 -167 34 -198 5 -330 -50 -223 -69 -262 -338 -690 -66 -104
-183 -288 -260 -408 -77 -120 -137 -221 -133 -224 8 -8 -35 -65 351 472 186
259 340 472 343 475 8 10 83 -86 112 -144 38 -75 40 -140 6 -211 -12 -27 -83
-124 -155 -215 -138 -170 -321 -438 -408 -595 -485 -871 -654 -1925 -467
-2915 153 -813 537 -1544 1109 -2115 763 -761 1812 -1099 2760 -889 697 155
1342 607 1814 1272 296 418 505 950 596 1517 67 415 72 903 14 1340 -119 900
-515 1756 -1086 2346 -51 53 -93 99 -93 103 0 4 20 37 43 74 24 37 70 108 103
159 64 100 97 151 376 581 100 155 203 315 227 355 25 40 122 189 216 332 95
143 201 306 236 363 35 57 87 140 116 185 28 45 69 111 91 147 92 151 229 340
296 408 87 89 163 146 325 242 198 117 277 212 321 386 41 159 17 300 -77 452
-36 60 -136 143 -217 182 -108 52 -202 68 -305 51 -242 -40 -407 -188 -465
-416 -8 -33 -20 -105 -26 -159 -19 -179 -69 -346 -154 -515 -46 -91 -234 -390
-436 -691 -64 -96 -169 -258 -232 -360 -131 -211 -209 -333 -410 -642 -46 -70
-105 -164 -133 -209 -57 -91 -343 -530 -355 -542 -4 -5 -52 21 -106 56 -552
357 -1164 530 -1738 489 -270 -20 -486 -63 -762 -153 -69 -22 -130 -37 -134
-32 -90 98 -210 237 -210 243 0 13 187 116 294 163 325 142 620 201 1006 201
347 0 524 -27 1094 -165 181 -44 334 -78 340 -75 20 7 -228 118 -374 166 -330
109 -689 160 -1045 146 -208 -8 -306 -18 -550 -58 -228 -36 -271 -33 -418 39
-134 65 -567 327 -605 366 -37 38 -60 96 -272 692 -184 519 -330 969 -337
1041 -10 108 33 182 129 225 81 36 202 31 463 -17 189 -34 227 -38 380 -39
152 0 177 2 236 23 80 28 171 81 221 129 l36 35 24 -38 c13 -22 71 -117 129
-211 57 -95 110 -173 117 -173 26 0 72 34 72 54 0 24 -96 354 -161 552 -73
223 -103 250 -354 322 -184 52 -350 89 -507 112 -126 19 -381 32 -468 24z
m-510 -254 c120 -14 192 -30 303 -71 94 -34 167 -88 167 -125 0 -29 -50 -101
-107 -157 l-50 -48 -154 73 c-191 92 -263 137 -285 180 -23 44 -54 149 -48
160 3 4 22 6 42 3 20 -3 80 -10 132 -15z m-293 -412 c4 -29 2 -37 -13 -41 -25
-8 -775 -178 -793 -180 -21 -3 -40 65 -20 72 53 19 806 196 812 191 4 -4 10
-23 14 -42z m6581 -131 c23 1 56 2 72 4 23 2 39 -6 63 -28 18 -17 53 -40 78
-51 39 -16 49 -27 59 -58 7 -22 25 -55 41 -75 26 -34 28 -43 27 -120 0 -78 -3
-91 -44 -176 -40 -81 -49 -93 -80 -103 -20 -7 -50 -25 -67 -40 -31 -27 -35
-27 -133 -25 -96 2 -104 4 -140 32 -22 17 -57 36 -78 44 -35 13 -43 21 -62 72
-13 32 -36 73 -53 92 -27 31 -29 37 -19 72 5 20 8 55 4 78 -4 33 1 53 30 113
30 59 43 76 76 93 22 11 54 36 71 56 29 33 33 34 71 27 23 -4 60 -7 84 -7z
m-5891 -1230 c145 -395 261 -722 258 -727 -7 -11 -113 -46 -119 -39 -7 7 -506
1430 -506 1443 0 12 77 46 94 42 5 -1 127 -325 273 -719z m-5347 661 c10 -24
711 -2186 713 -2202 3 -14 -92 -41 -102 -30 -9 9 -731 2194 -731 2211 0 8 75
39 103 42 4 1 12 -9 17 -21z m4947 -545 c111 -158 144 -288 107 -414 -28 -93
-72 -167 -234 -394 -263 -369 -508 -723 -1027 -1488 -543 -800 -585 -860 -646
-913 -83 -72 -131 -86 -317 -95 -199 -9 -240 -19 -536 -129 -120 -44 -225 -83
-231 -85 -19 -6 -17 -16 27 -217 23 -100 39 -188 38 -197 -3 -12 -58 -24 -258
-57 -140 -23 -258 -39 -261 -35 -3 3 -161 469 -350 1034 -332 991 -343 1028
-324 1040 51 30 3951 2005 3961 2006 6 1 29 -25 51 -56z m-4807 -745 c380
-1115 710 -2095 760 -2254 111 -361 161 -507 246 -720 103 -259 126 -351 127
-499 1 -167 -30 -290 -115 -457 -27 -53 -62 -115 -79 -137 l-29 -41 -113 0
c-196 0 -253 32 -296 169 -12 36 -44 194 -71 351 -28 157 -68 373 -90 480
-145 714 -339 1202 -638 1602 -84 114 -104 119 -58 17 13 -30 78 -173 144
-319 350 -774 421 -1010 522 -1727 22 -158 51 -360 64 -448 13 -88 20 -164 16
-168 -10 -12 -142 -21 -184 -13 -47 9 -113 68 -137 121 -18 42 -26 88 -60 379
-118 1014 -406 1701 -962 2293 -87 93 -127 154 -127 194 0 37 36 100 96 167
30 34 59 62 64 62 5 0 104 -75 220 -166 117 -91 215 -163 218 -160 3 3 -14 33
-37 66 -24 33 -51 85 -62 115 -21 61 -25 177 -8 238 6 22 8 41 5 44 -3 3 -27
-10 -53 -30 -43 -31 -50 -34 -67 -21 -18 13 -13 26 109 291 70 153 164 358
208 456 45 97 87 177 93 177 34 0 30 -30 -42 -270 -40 -135 -72 -252 -71 -260
2 -15 60 88 248 442 52 98 97 178 100 178 4 0 30 -69 59 -152z m5808 -938
c170 -617 169 -595 10 -355 -142 216 -238 444 -261 626 -9 74 -8 95 7 151 18
66 71 147 87 131 4 -4 75 -253 157 -553z m1792 -205 c349 -58 678 -193 1015
-418 50 -33 91 -61 93 -63 11 -8 -239 -411 -323 -520 -112 -146 -292 -303
-440 -384 -75 -42 -192 -100 -201 -100 -20 0 -136 -64 -172 -95 -87 -76 -133
-168 -182 -367 -45 -182 -58 -444 -24 -495 8 -14 31 -31 51 -39 76 -32 97 -6
231 286 27 60 73 121 105 141 106 64 386 -57 456 -196 36 -73 27 -139 -43
-300 -33 -76 -60 -151 -63 -181 -5 -47 -3 -52 22 -72 60 -47 132 -16 248 107
136 145 235 301 277 436 16 54 23 112 30 255 5 102 16 219 25 260 17 84 74
249 113 325 48 97 338 545 352 545 11 0 220 -222 309 -330 423 -509 700 -1138
795 -1810 32 -219 40 -343 40 -610 0 -849 -187 -1605 -532 -2153 -339 -538
-861 -963 -1478 -1202 -306 -119 -600 -176 -909 -177 -379 0 -671 71 -1072
263 -950 452 -1613 1318 -1914 2497 -197 773 -178 1494 61 2212 118 355 309
749 457 942 59 76 393 456 403 457 8 1 109 -318 155 -487 142 -524 392 -1002
880 -1687 78 -110 149 -213 158 -230 30 -60 88 -263 112 -393 30 -169 42 -191
120 -215 53 -17 83 -18 250 -14 218 7 244 12 371 84 49 28 143 79 209 115 114
61 120 66 123 98 7 64 -84 275 -187 437 -35 54 -48 66 -103 91 -35 16 -72 40
-84 53 -12 13 -77 114 -146 224 -69 110 -191 305 -272 432 -458 727 -660 1188
-729 1669 l-13 89 155 189 c122 148 163 193 195 207 119 52 391 118 571 139
110 12 390 4 505 -15z m-6443 -1531 c266 -797 481 -1454 479 -1460 -5 -14 -87
-38 -96 -27 -17 18 -972 2905 -964 2913 11 10 75 29 88 26 6 -1 227 -654 493
-1452z m4757 951 c155 -815 523 -1586 1156 -2420 l137 -181 -29 -42 c-16 -23
-31 -42 -34 -42 -3 0 -51 11 -106 26 -112 28 -163 50 -194 86 -20 22 -330 479
-505 743 -345 522 -533 892 -649 1277 -44 146 -86 337 -96 435 -10 99 18 133
196 227 47 25 88 42 91 38 4 -4 19 -70 33 -147z m311 -517 c76 -266 140 -490
143 -498 3 -10 2 -12 -5 -5 -9 9 -347 896 -359 942 -5 16 1 23 23 31 60 22 50
46 198 -470z m-7122 410 c388 -444 699 -1289 700 -1899 0 -162 -8 -200 -40
-193 -10 2 -157 24 -328 50 -365 54 -604 94 -804 135 -143 29 -147 30 -183 69
-44 49 -88 156 -95 232 -5 54 -1 69 81 273 141 350 596 1394 608 1395 3 0 31
-28 61 -62z m3737 -848 c11 -21 20 -43 20 -48 0 -12 -186 -145 -261 -186 -36
-20 -80 -36 -97 -36 -27 0 -212 66 -212 75 0 16 55 146 64 154 11 10 387 77
443 80 17 1 28 -9 43 -39z m3267 -703 l262 -412 -22 -17 c-12 -10 -27 -18 -34
-18 -6 0 -128 185 -272 412 l-261 412 28 18 c15 10 29 18 32 18 3 -1 123 -186
267 -413z m665 -17 c129 -173 237 -320 241 -327 10 -15 -70 -70 -82 -57 -7 7
-399 682 -419 719 -17 34 53 -57 260 -335z m-4838 20 c180 -21 330 -41 333
-44 12 -12 -34 -102 -76 -148 -72 -80 -129 -94 -261 -62 -76 18 -160 22 -211
11 -36 -7 -37 -7 -110 78 -41 48 -75 92 -77 99 -5 23 38 106 56 106 9 0 165
-18 346 -40z m-2764 -816 c1053 -114 1920 -211 1925 -215 6 -4 8 -32 5 -66 -5
-53 -7 -58 -30 -60 -14 -2 -896 97 -1960 220 l-1935 222 -3 37 c-5 56 13 81
51 75 18 -3 894 -99 1947 -213z m3235 -68 c29 -103 45 -218 45 -327 0 -186
-52 -328 -160 -438 -144 -147 -349 -198 -497 -125 -56 27 -163 120 -163 141 0
16 744 823 751 815 4 -4 14 -34 24 -66z m4960 -162 c88 -9 165 -21 171 -26 14
-10 -36 -182 -59 -206 -12 -12 -24 -12 -73 -2 -64 13 -254 67 -262 75 -5 5 17
154 25 168 6 10 16 9 198 -9z m-5893 -24 c101 -12 189 -23 196 -25 8 -3 12
-29 12 -84 0 -53 -4 -83 -12 -88 -16 -10 -387 -71 -393 -64 -8 7 -6 267 2 274
8 9 -18 10 195 -13z"/>
<path d="M6340 12473 c-313 -30 -570 -107 -1034 -310 -173 -76 -305 -174 -371
-278 -26 -40 -85 -180 -85 -201 0 -17 50 17 254 170 127 95 270 199 318 230
225 146 535 258 838 302 168 24 460 15 625 -20 160 -34 331 -93 494 -172 74
-35 136 -62 139 -59 3 3 3 7 1 8 -37 30 -172 124 -230 160 -180 112 -482 179
-786 175 -70 0 -144 -3 -163 -5z"/>
<path d="M7770 11985 c0 -3 79 -44 175 -93 l176 -88 -107 -162 c-79 -121 -111
-161 -123 -157 -30 9 -416 83 -419 80 -2 -1 27 -31 63 -65 146 -141 188 -275
136 -440 -18 -56 -20 -83 -7 -69 14 14 598 861 602 873 7 18 2 19 -161 41 -71
10 -163 30 -223 51 -110 36 -112 37 -112 29z"/>
<path d="M6300 11960 c-281 -27 -698 -160 -884 -284 -70 -46 -315 -281 -304
-291 4 -4 33 13 66 38 264 203 590 358 877 416 228 46 409 46 854 1 107 -11
196 -18 198 -16 6 6 -146 63 -229 86 -173 47 -399 66 -578 50z"/>
<path d="M4051 10484 c0 -11 3 -14 6 -6 3 7 2 16 -1 19 -3 4 -6 -2 -5 -13z"/>
<path d="M4026 10392 c-10 -40 -16 -75 -13 -78 8 -8 39 105 35 129 -2 13 -11
-9 -22 -51z"/>
<path d="M4301 10178 c-106 -119 -127 -155 -168 -295 -71 -247 -122 -507 -148
-763 -17 -170 -20 -589 -4 -765 38 -442 152 -905 336 -1360 72 -179 206 -472
238 -519 14 -21 51 -46 119 -79 54 -26 101 -46 103 -43 12 12 -154 471 -241
668 -190 429 -289 786 -342 1233 -23 186 -26 693 -6 885 37 361 115 773 208
1108 11 40 -10 24 -95 -70z"/>
<path d="M13580 10120 c0 -5 5 -10 10 -10 6 0 10 5 10 10 0 6 -4 10 -10 10 -5
0 -10 -4 -10 -10z"/>
<path d="M19514 10064 c4 -14 50 -138 102 -277 326 -859 399 -1102 473 -1572
48 -305 55 -414 56 -795 0 -373 -4 -436 -46 -705 -109 -690 -400 -1342 -853
-1910 -600 -750 -1289 -1174 -2101 -1291 -150 -22 -504 -25 -655 -6 -508 65
-1008 262 -1510 597 -203 135 -322 229 -694 549 -170 146 -313 266 -318 266
-17 0 -6 -18 77 -128 325 -434 715 -762 1193 -1004 387 -195 803 -320 1317
-395 171 -25 576 -25 733 0 722 115 1354 518 1973 1257 689 823 1012 1852 960
3055 -42 958 -241 1679 -630 2282 -66 103 -89 126 -77 77z"/>
<path d="M3811 9524 c0 -11 3 -14 6 -6 3 7 2 16 -1 19 -3 4 -6 -2 -5 -13z"/>
<path d="M3781 9398 c-12 -51 -41 -183 -64 -293 l-42 -200 1 -370 c1 -203 5
-388 8 -410 7 -53 20 -133 31 -190 2 -11 6 -38 9 -60 13 -86 17 -111 22 -140
3 -16 7 -39 8 -50 7 -37 257 -728 338 -933 84 -212 122 -279 247 -437 56 -70
92 -106 80 -79 -3 5 -39 79 -81 165 -484 989 -669 1978 -547 2928 10 85 17
156 15 158 -2 2 -14 -38 -25 -89z"/>
<path d="M13164 9260 c-64 -143 -107 -295 -143 -505 -126 -738 -76 -1484 154
-2295 174 -615 377 -1053 633 -1369 118 -145 120 -146 128 -139 11 11 -87 226
-279 613 -286 576 -379 809 -475 1190 -200 788 -211 1501 -36 2236 27 113 34
162 32 220 -3 64 -5 71 -14 49z"/>
</g>
</svg>
